<svg id="Layer_1" data-name="Layer 1" xmlns="http://www.w3.org/2000/svg" viewBox="0 0 108.33 31.22"><defs><style>.cls-1{font-size:23.78px;fill:#b6d1dd;font-family:BreeSerif-Regular, Bree Serif;}.cls-2{letter-spacing:-0.04em;}.cls-3{fill:#1e6e87;}</style></defs><text class="cls-1" transform="translate(38.57 24.54)">e<tspan class="cls-2" x="11.51" y="0">n</tspan><tspan x="24.83" y="0">tera</tspan></text><path class="cls-3" d="M8.33,9.39V21.73h1.81s6.19-9,13.77-9,13.72,9,13.72,9h1.78V9.39Zm15.52,8.18c-9.19,0-14.52,8.55-15.52,10.3v12.6H39.41V27.88C38.44,26.18,33.07,17.57,23.85,17.57Zm0,19.43c-7.41,0-13.54-8.72-13.54-8.72S13.2,23.52,17,21.41a8.11,8.11,0,0,0,2.36,11.07,8.14,8.14,0,0,0,11.9-10.23.49.49,0,0,0-.75-.13l-.57.57a.44.44,0,0,0-.09.51,6.44,6.44,0,0,1-1.38,7.09,6.3,6.3,0,0,1-7.38,1.25,7.81,7.81,0,0,1-1.69-1.18l9.87-9.81a19.62,19.62,0,0,1,8.08,7.68S31.29,37,23.89,37Z" transform="translate(-8.33 -9.39)"/></svg>