<svg id="Layer_1" data-name="Layer 1" xmlns="http://www.w3.org/2000/svg" viewBox="0 0 16 16"><defs><style>.cls-1{fill:#1e6e87;}</style></defs><path class="cls-1" d="M0,0V6.35H.93S4.12,1.72,8,1.72s7.06,4.63,7.06,4.63H16V0ZM8,4.21c-4.73,0-7.48,4.4-8,5.3V16H16V9.52C15.5,8.64,12.73,4.21,8,4.21Zm0,10c-3.81,0-7-4.5-7-4.5A11.31,11.31,0,0,1,4.47,6.19a4.16,4.16,0,0,0,1.22,5.69,4.1,4.1,0,0,0,5.5-.74,4.15,4.15,0,0,0,.62-4.52.26.26,0,0,0-.39-.07l-.29.3a.23.23,0,0,0-.05.26,3.32,3.32,0,0,1-.71,3.65,3.24,3.24,0,0,1-3.8.64,4,4,0,0,1-.86-.6l5.08-5.05A10.09,10.09,0,0,1,15,9.7S11.82,14.22,8,14.22Z" transform="translate(0 0)"/></svg>